<?xml version="1.0" encoding="utf-8"?>
<!-- Generator: Adobe Illustrator 21.0.0, SVG Export Plug-In . SVG Version: 6.00 Build 0)  -->
<svg version="1.1" id="Capa_1" xmlns="http://www.w3.org/2000/svg" xmlns:xlink="http://www.w3.org/1999/xlink" x="0px" y="0px"
	 viewBox="0 0 444.9 444.9" style="enable-background:new 0 0 444.9 444.9;" xml:space="preserve">
<style type="text/css">
	.st0{fill:url(#XMLID_2_);}
	.st1{fill:url(#XMLID_3_);}
</style>
<g id="XMLID_476_">
	<linearGradient id="XMLID_2_" gradientUnits="userSpaceOnUse" x1="152.729" y1="146.0811" x2="444.8915" y2="146.0811">
		<stop  offset="0" style="stop-color:#FFFFFF"/>
		<stop  offset="1" style="stop-color:#FFFFFF"/>
	</linearGradient>
	<path id="XMLID_503_" class="st0" d="M440.5,173.1c5.9-5.9,5.9-15.4,0-21.2L418,129.4c-5.1-5.1-13.1-5.8-19-1.8l-47.3,32.2l32-47.7
		c4-6,3.2-13.9-1.9-19l-48.8-48.8c-4.5-4.5-11.4-5.7-17.1-2.9l-8.4,4.1l4-9c2.6-5.7,1.3-12.4-3.1-16.8L293,4.4
		c-5.9-5.9-15.4-5.9-21.2,0L152.7,123.5l168.7,168.7L440.5,173.1z"/>
	<linearGradient id="XMLID_3_" gradientUnits="userSpaceOnUse" x1="-2.498627e-04" y1="295.2571" x2="299.27" y2="295.2571">
		<stop  offset="0" style="stop-color:#FFFFFF"/>
		<stop  offset="1" style="stop-color:#FFFFFF"/>
	</linearGradient>
	<path id="XMLID_1199_" class="st1" d="M130.6,145.6l-34.5,34.5c-2.8,2.8-4.4,6.6-4.4,10.6s1.6,7.8,4.4,10.6l32.7,32.7
		c6.3,6.3,9.4,15,8.4,23.8c-1,8.9-5.8,16.7-13.4,21.5c-96.1,61.2-105,70.2-108,73.1c-21.1,21.1-21.1,55.5,0,76.6
		c21.1,21.1,55.5,21.1,76.6,0c2.9-2.9,11.9-11.9,73.1-108c4.8-7.5,12.6-12.4,21.5-13.3c8.9-1,17.6,2.1,23.9,8.4l32.7,32.7
		c5.9,5.9,15.4,5.9,21.2,0l34.5-34.5L130.6,145.6z M70.1,404.8c-8.3,8.3-21.7,8.3-30,0c-8.3-8.3-8.3-21.7,0-30
		c8.3-8.3,21.7-8.3,30,0C78.3,383.1,78.3,396.5,70.1,404.8z"/>
</g>
</svg>
